<?xml version="1.0" standalone="no"?>
<!DOCTYPE svg PUBLIC "-//W3C//DTD SVG 20010904//EN"
 "http://www.w3.org/TR/2001/REC-SVG-20010904/DTD/svg10.dtd">
<svg version="1.0" xmlns="http://www.w3.org/2000/svg"
 width="512.000000pt" height="512.000000pt" viewBox="0 0 512.000000 512.000000"
 preserveAspectRatio="xMidYMid meet">

<g transform="translate(0.000000,512.000000) scale(0.100000,-0.100000)"
fill="#000000" stroke="none">
<path d="M2375 4814 c-16 -2 -79 -11 -140 -20 -60 -8 -171 -31 -245 -50 -876
-228 -1533 -963 -1667 -1864 -24 -160 -23 -484 0 -640 100 -653 467 -1224
1017 -1579 885 -572 2059 -449 2806 294 362 360 578 796 655 1321 37 260 17
564 -57 854 -223 868 -958 1529 -1854 1665 -101 15 -453 28 -515 19z m376
-164 c131 -13 277 -39 285 -51 2 -5 -2 -42 -11 -83 -8 -41 -15 -119 -15 -173
0 -185 46 -299 170 -428 42 -44 80 -88 83 -97 11 -32 -15 -79 -120 -211 -203
-257 -235 -362 -178 -583 74 -285 -24 -569 -243 -708 -79 -49 -150 -66 -285
-66 -134 0 -238 -20 -318 -60 -68 -35 -145 -115 -183 -191 -45 -89 -59 -162
-54 -269 9 -187 91 -246 400 -289 281 -39 349 -76 448 -245 82 -138 211 -226
365 -248 241 -35 521 116 635 342 50 100 63 161 58 279 -4 84 -11 120 -33 176
-97 247 -124 380 -95 471 46 143 159 159 324 46 100 -68 218 -124 311 -147 77
-19 230 -23 282 -6 18 5 33 7 33 3 0 -4 -11 -49 -25 -99 -176 -658 -688 -1209
-1329 -1432 -83 -29 -93 -31 -150 -21 -88 16 -178 61 -242 122 -33 31 -99 117
-159 208 -188 284 -243 316 -501 297 -315 -24 -580 45 -638 166 -26 56 -19
119 31 301 40 145 48 185 48 261 0 81 -3 95 -30 143 -16 30 -75 100 -132 157
-113 115 -124 132 -148 225 -44 170 -124 230 -341 259 -44 6 -119 16 -169 22
-98 13 -197 44 -248 79 -78 54 -91 111 -57 252 83 342 263 677 501 932 62 67
75 76 106 76 46 0 91 -33 114 -84 38 -84 17 -163 -67 -257 -99 -110 -153 -222
-175 -365 -28 -184 42 -370 174 -460 93 -64 143 -76 342 -84 232 -8 243 -13
410 -178 144 -142 171 -157 280 -157 73 0 87 3 159 40 264 131 329 383 149
576 -97 104 -172 139 -361 169 -159 26 -244 62 -269 114 -16 34 -16 39 0 90
10 30 37 81 60 113 88 119 184 180 380 242 122 39 167 62 200 101 53 62 48
129 -19 260 -62 122 -78 193 -71 310 3 52 12 112 18 133 l12 37 93 0 c50 0
138 -5 195 -10z m-466 -32 c-3 -13 -9 -70 -12 -128 -6 -138 12 -225 77 -359
30 -61 47 -108 42 -113 -5 -5 -68 -29 -140 -53 -72 -24 -151 -54 -174 -66
-149 -76 -253 -183 -325 -335 -32 -68 -37 -88 -37 -149 1 -176 136 -275 434
-314 199 -27 338 -159 300 -286 -24 -80 -167 -185 -253 -185 -36 0 -48 8 -166
123 -190 185 -265 217 -501 217 -164 0 -218 13 -282 70 -145 127 -122 387 53
585 77 87 110 156 117 245 8 117 -47 240 -136 301 l-34 23 33 29 c195 162 561
331 853 392 148 31 160 31 151 3z m1175 -164 c672 -320 1118 -962 1191 -1714
14 -152 6 -367 -15 -409 -25 -48 -96 -76 -191 -75 -113 2 -223 41 -355 129
-156 103 -250 129 -360 101 -164 -42 -250 -184 -237 -393 7 -113 29 -200 89
-345 41 -99 43 -107 43 -208 0 -95 -3 -111 -28 -162 -90 -184 -317 -305 -497
-267 -108 23 -182 80 -242 186 -47 84 -149 183 -228 221 -83 39 -153 57 -326
82 -176 26 -210 35 -241 67 -24 24 -25 29 -21 112 9 146 58 224 178 280 49 22
73 26 220 32 187 7 251 23 359 86 98 58 209 182 264 295 69 138 91 242 84 398
-4 85 -12 148 -26 195 -12 38 -21 95 -21 126 0 79 45 165 166 314 115 143 140
184 154 252 10 43 9 63 -5 109 -14 49 -28 69 -97 137 -86 86 -119 143 -139
237 -13 61 -7 223 11 282 l11 37 72 -25 c40 -14 124 -50 187 -80z m-2936
-1808 c74 -45 181 -72 351 -91 159 -18 237 -37 265 -65 11 -11 29 -52 41 -92
36 -120 65 -166 174 -278 57 -58 110 -119 119 -137 28 -56 25 -78 -64 -412
-68 -257 52 -436 342 -510 122 -32 303 -44 455 -32 84 7 142 7 163 1 51 -15
94 -62 188 -205 107 -164 167 -238 238 -295 l56 -45 -33 -7 c-19 -4 -97 -10
-174 -14 -242 -12 -508 26 -744 105 -863 288 -1441 1094 -1441 2008 0 57 2
103 4 103 2 0 29 -15 60 -34z"/>
<path d="M1749 4301 c-33 -33 -35 -50 -14 -90 18 -36 32 -41 110 -41 78 0 92
5 110 41 21 40 19 57 -14 90 -27 26 -36 29 -96 29 -60 0 -69 -3 -96 -29z"/>
<path d="M1474 3430 c-39 -16 -54 -49 -54 -123 0 -62 3 -71 29 -98 33 -33 50
-35 90 -14 37 18 41 31 41 121 0 61 -4 78 -20 94 -11 11 -24 20 -29 20 -5 0
-15 2 -23 4 -7 3 -23 1 -34 -4z"/>
<path d="M3733 3518 c-32 -16 -46 -59 -41 -134 5 -76 27 -104 82 -104 56 0 76
33 76 124 0 68 -3 80 -25 101 -25 26 -56 31 -92 13z"/>
<path d="M4055 2825 c-16 -15 -25 -36 -25 -55 0 -19 9 -40 25 -55 21 -22 33
-25 93 -25 89 0 122 22 122 80 0 58 -33 80 -122 80 -60 0 -72 -3 -93 -25z"/>
<path d="M3069 2051 c-20 -16 -24 -30 -27 -95 -4 -73 -3 -76 26 -106 37 -37
74 -39 107 -5 22 21 25 33 25 103 0 69 -3 81 -23 100 -29 27 -77 28 -108 3z"/>
<path d="M815 2135 c-16 -15 -25 -36 -25 -55 0 -19 9 -40 25 -55 21 -21 33
-25 88 -25 83 0 117 23 117 80 0 57 -34 80 -117 80 -55 0 -67 -4 -88 -25z"/>
<path d="M1925 908 c-38 -20 -45 -40 -45 -123 0 -95 15 -119 76 -119 50 0 74
29 81 96 7 72 -10 124 -47 143 -34 18 -39 18 -65 3z"/>
</g>
</svg>
